<?xml version="1.0" encoding="UTF-8" standalone="no"?>
<!DOCTYPE svg PUBLIC "-//W3C//DTD SVG 1.1//EN" "http://www.w3.org/Graphics/SVG/1.1/DTD/svg11.dtd">
<svg xmlns="http://www.w3.org/2000/svg" version="1.1" viewBox="0.00 0.00 410.00 361.00">
<g stroke-width="2.00" fill="none" stroke-linecap="butt">
<path stroke="#808080" vector-effect="non-scaling-stroke" d="
  M 189.41 38.77
  L 117.78 110.39"
/>
<path stroke="#a5efc0" vector-effect="non-scaling-stroke" d="
  M 117.78 110.39
  Q 107.74 102.10 96.80 106.38
  C 85.25 110.90 80.65 124.20 86.61 134.91
  Q 89.17 139.52 94.54 142.80"
/>
<path stroke="#808080" vector-effect="non-scaling-stroke" d="
  M 94.54 142.80
  L 62.71 206.47"
/>
<path stroke="#a5efc0" vector-effect="non-scaling-stroke" d="
  M 62.71 206.47
  Q 62.58 206.62 62.31 206.65
  Q 62.14 206.67 61.91 206.58
  Q 51.54 202.49 42.70 208.55
  C 28.50 218.29 32.50 239.00 48.25 244.26
  Q 48.74 244.42 48.55 244.74"
/>
<path stroke="#808080" vector-effect="non-scaling-stroke" d="
  M 48.55 244.74
  L 33.39 305.33"
/>
<path stroke="#a5efc0" vector-effect="non-scaling-stroke" d="
  M 33.39 305.33
  Q 28.43 304.67 26.76 304.98
  Q 14.64 307.24 10.37 317.76
  C 5.79 329.01 12.80 341.64 24.20 344.43
  C 39.58 348.19 53.38 333.21 47.79 318.20
  Q 44.40 309.11 34.84 305.82
  Q 34.68 305.77 34.59 305.63
  Q 34.47 305.44 34.45 305.22"
/>
<path stroke="#808080" vector-effect="non-scaling-stroke" d="
  M 34.45 305.22
  L 49.60 244.65"
/>
<path stroke="#a5efc0" vector-effect="non-scaling-stroke" d="
  M 49.60 244.65
  Q 54.03 245.38 58.40 244.65"
/>
<path stroke="#808080" vector-effect="non-scaling-stroke" d="
  M 58.40 244.65
  L 73.63 305.61"
/>
<path stroke="#a5efc0" vector-effect="non-scaling-stroke" d="
  M 73.63 305.61
  Q 62.13 309.78 59.62 320.18
  Q 57.93 327.18 60.76 333.20
  C 66.38 345.17 82.14 349.29 92.23 339.97
  C 101.53 331.39 101.30 317.43 91.48 309.38
  Q 84.70 303.83 74.60 305.33"
/>
<path stroke="#808080" vector-effect="non-scaling-stroke" d="
  M 74.60 305.33
  L 59.37 244.43"
/>
<path stroke="#a5efc0" vector-effect="non-scaling-stroke" d="
  M 59.37 244.43
  Q 68.60 241.38 72.17 233.42
  C 76.53 223.70 73.03 213.28 64.00 207.67
  Q 63.74 207.52 63.66 207.22
  Q 63.63 207.08 63.60 206.93"
/>
<path stroke="#808080" vector-effect="non-scaling-stroke" d="
  M 63.60 206.93
  L 95.31 143.49"
/>
<path stroke="#a5efc0" vector-effect="non-scaling-stroke" d="
  M 95.31 143.49
  C 95.55 143.34 95.96 143.30 96.24 143.42
  Q 101.84 145.79 107.86 144.45
  Q 110.37 143.89 112.62 143.30"
/>
<path stroke="#808080" vector-effect="non-scaling-stroke" d="
  M 112.62 143.30
  L 144.59 207.28"
/>
<path stroke="#a5efc0" vector-effect="non-scaling-stroke" d="
  M 144.59 207.28
  Q 136.95 211.69 134.80 219.27
  C 129.81 236.83 148.68 251.57 164.28 242.11
  Q 171.84 237.53 173.50 229.14
  Q 175.20 220.54 171.10 214.47
  Q 161.83 200.76 145.40 206.73"
/>
<path stroke="#808080" vector-effect="non-scaling-stroke" d="
  M 145.40 206.73
  L 113.43 142.76"
/>
<path stroke="#a5efc0" vector-effect="non-scaling-stroke" d="
  M 113.43 142.76
  Q 122.97 137.09 123.98 126.75
  Q 124.83 118.04 118.51 111.30"
/>
<path stroke="#808080" vector-effect="non-scaling-stroke" d="
  M 118.51 111.30
  L 190.15 39.67"
/>
<path stroke="#a5efc0" vector-effect="non-scaling-stroke" d="
  M 190.15 39.67
  Q 204.06 50.56 217.82 39.64"
/>
<path stroke="#808080" vector-effect="non-scaling-stroke" d="
  M 217.82 39.64
  L 289.46 111.27"
/>
<path stroke="#a5efc0" vector-effect="non-scaling-stroke" d="
  M 289.46 111.27
  Q 282.71 118.70 284.12 127.87
  Q 285.60 137.48 294.57 142.76"
/>
<path stroke="#808080" vector-effect="non-scaling-stroke" d="
  M 294.57 142.76
  L 262.71 206.47"
/>
<path stroke="#a5efc0" vector-effect="non-scaling-stroke" d="
  M 262.71 206.47
  Q 262.58 206.62 262.32 206.65
  Q 262.14 206.67 261.91 206.58
  Q 251.28 202.39 242.23 208.87
  C 233.84 214.88 231.49 226.39 236.85 235.23
  C 242.61 244.73 254.77 247.94 264.18 242.15
  Q 271.57 237.62 273.25 230.26
  Q 276.59 215.66 263.88 207.59
  Q 263.65 207.44 263.60 206.93"
/>
<path stroke="#808080" vector-effect="non-scaling-stroke" d="
  M 263.60 206.93
  L 295.31 143.49"
/>
<path stroke="#a5efc0" vector-effect="non-scaling-stroke" d="
  M 295.31 143.49
  C 295.55 143.33 295.95 143.30 296.24 143.43
  Q 301.77 145.76 307.71 144.48
  Q 310.29 143.92 312.62 143.31"
/>
<path stroke="#808080" vector-effect="non-scaling-stroke" d="
  M 312.62 143.31
  L 344.59 207.28"
/>
<path stroke="#a5efc0" vector-effect="non-scaling-stroke" d="
  M 344.59 207.28
  C 334.80 212.94 330.98 224.70 336.46 234.54
  C 341.89 244.30 353.92 248.00 363.68 242.45
  Q 371.91 237.77 373.55 228.96
  Q 375.13 220.44 371.10 214.47
  Q 361.84 200.76 345.41 206.73"
/>
<path stroke="#808080" vector-effect="non-scaling-stroke" d="
  M 345.41 206.73
  L 313.67 143.23"
/>
<path stroke="#a5efc0" vector-effect="non-scaling-stroke" d="
  M 313.67 143.23
  Q 313.64 142.94 313.76 142.66
  Q 313.86 142.47 314.04 142.35
  C 324.05 135.97 327.20 123.68 320.54 113.84
  C 313.55 103.53 299.87 102.10 290.58 110.19
  Q 290.48 110.28 290.34 110.28
  Q 290.20 110.29 290.07 110.27"
/>
<path stroke="#808080" vector-effect="non-scaling-stroke" d="
  M 290.07 110.27
  L 218.61 38.79"
/>
<path stroke="#a5efc0" vector-effect="non-scaling-stroke" d="
  M 218.61 38.79
  Q 229.24 25.79 219.96 12.81
  Q 217.04 8.72 211.11 6.34
  C 197.85 0.99 183.87 11.49 183.98 25.32
  Q 184.04 32.64 189.41 38.77"
/>
<path stroke="#256f40" vector-effect="non-scaling-stroke" d="
  M 218.61 38.79
  Q 217.71 38.78 217.82 39.64"
/>
<path stroke="#256f40" vector-effect="non-scaling-stroke" d="
  M 190.15 39.67
  L 190.11 39.34
  Q 190.08 39.09 189.84 38.98
  L 189.41 38.77"
/>
<path stroke="#256f40" vector-effect="non-scaling-stroke" d="
  M 290.07 110.27
  Q 290.32 110.79 290.06 111.06
  Q 289.59 111.54 289.46 111.27"
/>
<path stroke="#256f40" vector-effect="non-scaling-stroke" d="
  M 118.51 111.30
  Q 117.89 111.12 117.78 110.39"
/>
<path stroke="#256f40" vector-effect="non-scaling-stroke" d="
  M 313.67 143.23
  Q 313.44 142.70 312.62 143.31"
/>
<path stroke="#256f40" vector-effect="non-scaling-stroke" d="
  M 295.31 143.49
  Q 295.14 143.36 295.11 143.15
  Q 295.08 142.90 294.84 142.93
  Q 294.49 142.96 294.57 142.76"
/>
<path stroke="#256f40" vector-effect="non-scaling-stroke" d="
  M 113.43 142.76
  Q 113.33 143.03 112.62 143.30"
/>
<path stroke="#256f40" vector-effect="non-scaling-stroke" d="
  M 95.31 143.49
  Q 95.15 143.36 95.12 143.17
  Q 95.08 142.92 94.83 142.92
  Q 94.63 142.92 94.54 142.80"
/>
<path stroke="#256f40" vector-effect="non-scaling-stroke" d="
  M 345.41 206.73
  Q 345.11 207.15 344.59 207.28"
/>
<path stroke="#256f40" vector-effect="non-scaling-stroke" d="
  M 263.60 206.93
  Q 263.31 207.40 262.71 206.47"
/>
<path stroke="#256f40" vector-effect="non-scaling-stroke" d="
  M 63.60 206.93
  Q 63.32 207.40 62.71 206.47"
/>
<path stroke="#256f40" vector-effect="non-scaling-stroke" d="
  M 145.40 206.73
  Q 145.12 207.15 144.59 207.28"
/>
<path stroke="#256f40" vector-effect="non-scaling-stroke" d="
  M 59.37 244.43
  Q 59.68 244.80 58.40 244.65"
/>
<path stroke="#256f40" vector-effect="non-scaling-stroke" d="
  M 49.60 244.65
  L 49.28 244.48
  Q 49.04 244.36 48.82 244.53
  L 48.55 244.74"
/>
<path stroke="#256f40" vector-effect="non-scaling-stroke" d="
  M 34.45 305.22
  Q 34.37 305.35 34.28 305.44
  Q 34.07 305.66 33.81 305.49
  Q 33.49 305.28 33.39 305.33"
/>
<path stroke="#256f40" vector-effect="non-scaling-stroke" d="
  M 74.60 305.33
  Q 73.87 306.20 73.63 305.61"
/>
</g>
<path fill="transparent" d="
  M 0.00 0.00
  L 410.00 0.00
  L 410.00 361.00
  L 0.00 361.00
  L 0.00 0.00
  Z
  M 189.41 38.77
  L 117.78 110.39
  Q 107.74 102.10 96.80 106.38
  C 85.25 110.90 80.65 124.20 86.61 134.91
  Q 89.17 139.52 94.54 142.80
  L 62.71 206.47
  Q 62.58 206.62 62.31 206.65
  Q 62.14 206.67 61.91 206.58
  Q 51.54 202.49 42.70 208.55
  C 28.50 218.29 32.50 239.00 48.25 244.26
  Q 48.74 244.42 48.55 244.74
  L 33.39 305.33
  Q 28.43 304.67 26.76 304.98
  Q 14.64 307.24 10.37 317.76
  C 5.79 329.01 12.80 341.64 24.20 344.43
  C 39.58 348.19 53.38 333.21 47.79 318.20
  Q 44.40 309.11 34.84 305.82
  Q 34.68 305.77 34.59 305.63
  Q 34.47 305.44 34.45 305.22
  L 49.60 244.65
  Q 54.03 245.38 58.40 244.65
  L 73.63 305.61
  Q 62.13 309.78 59.62 320.18
  Q 57.93 327.18 60.76 333.20
  C 66.38 345.17 82.14 349.29 92.23 339.97
  C 101.53 331.39 101.30 317.43 91.48 309.38
  Q 84.70 303.83 74.60 305.33
  L 59.37 244.43
  Q 68.60 241.38 72.17 233.42
  C 76.53 223.70 73.03 213.28 64.00 207.67
  Q 63.74 207.52 63.66 207.22
  Q 63.63 207.08 63.60 206.93
  L 95.31 143.49
  C 95.55 143.34 95.96 143.30 96.24 143.42
  Q 101.84 145.79 107.86 144.45
  Q 110.37 143.89 112.62 143.30
  L 144.59 207.28
  Q 136.95 211.69 134.80 219.27
  C 129.81 236.83 148.68 251.57 164.28 242.11
  Q 171.84 237.53 173.50 229.14
  Q 175.20 220.54 171.10 214.47
  Q 161.83 200.76 145.40 206.73
  L 113.43 142.76
  Q 122.97 137.09 123.98 126.75
  Q 124.83 118.04 118.51 111.30
  L 190.15 39.67
  Q 204.06 50.56 217.82 39.64
  L 289.46 111.27
  Q 282.71 118.70 284.12 127.87
  Q 285.60 137.48 294.57 142.76
  L 262.71 206.47
  Q 262.58 206.62 262.32 206.65
  Q 262.14 206.67 261.91 206.58
  Q 251.28 202.39 242.23 208.87
  C 233.84 214.88 231.49 226.39 236.85 235.23
  C 242.61 244.73 254.77 247.94 264.18 242.15
  Q 271.57 237.62 273.25 230.26
  Q 276.59 215.66 263.88 207.59
  Q 263.65 207.44 263.60 206.93
  L 295.31 143.49
  C 295.55 143.33 295.95 143.30 296.24 143.43
  Q 301.77 145.76 307.71 144.48
  Q 310.29 143.92 312.62 143.31
  L 344.59 207.28
  C 334.80 212.94 330.98 224.70 336.46 234.54
  C 341.89 244.30 353.92 248.00 363.68 242.45
  Q 371.91 237.77 373.55 228.96
  Q 375.13 220.44 371.10 214.47
  Q 361.84 200.76 345.41 206.73
  L 313.67 143.23
  Q 313.64 142.94 313.76 142.66
  Q 313.86 142.47 314.04 142.35
  C 324.05 135.97 327.20 123.68 320.54 113.84
  C 313.55 103.53 299.87 102.10 290.58 110.19
  Q 290.48 110.28 290.34 110.28
  Q 290.20 110.29 290.07 110.27
  L 218.61 38.79
  Q 229.24 25.79 219.96 12.81
  Q 217.04 8.72 211.11 6.34
  C 197.85 0.99 183.87 11.49 183.98 25.32
  Q 184.04 32.64 189.41 38.77
  Z"
/>
<path fill="#4ade80" d="
  M 218.61 38.79
  Q 217.71 38.78 217.82 39.64
  Q 204.06 50.56 190.15 39.67
  L 190.11 39.34
  Q 190.08 39.09 189.84 38.98
  L 189.41 38.77
  Q 184.04 32.64 183.98 25.32
  C 183.87 11.49 197.85 0.99 211.11 6.34
  Q 217.04 8.72 219.96 12.81
  Q 229.24 25.79 218.61 38.79
  Z"
/>
<path fill="#000000" d="
  M 189.41 38.77
  L 189.84 38.98
  Q 190.08 39.09 190.11 39.34
  L 190.15 39.67
  L 118.51 111.30
  Q 117.89 111.12 117.78 110.39
  L 189.41 38.77
  Z"
/>
<path fill="#000000" d="
  M 218.61 38.79
  L 290.07 110.27
  Q 290.32 110.79 290.06 111.06
  Q 289.59 111.54 289.46 111.27
  L 217.82 39.64
  Q 217.71 38.78 218.61 38.79
  Z"
/>
<path fill="#4ade80" d="
  M 117.78 110.39
  Q 117.89 111.12 118.51 111.30
  Q 124.83 118.04 123.98 126.75
  Q 122.97 137.09 113.43 142.76
  Q 113.33 143.03 112.62 143.30
  Q 110.37 143.89 107.86 144.45
  Q 101.84 145.79 96.24 143.42
  C 95.96 143.30 95.55 143.34 95.31 143.49
  Q 95.15 143.36 95.12 143.17
  Q 95.08 142.92 94.83 142.92
  Q 94.63 142.92 94.54 142.80
  Q 89.17 139.52 86.61 134.91
  C 80.65 124.20 85.25 110.90 96.80 106.38
  Q 107.74 102.10 117.78 110.39
  Z"
/>
<path fill="#4ade80" d="
  M 313.67 143.23
  Q 313.44 142.70 312.62 143.31
  Q 310.29 143.92 307.71 144.48
  Q 301.77 145.76 296.24 143.43
  C 295.95 143.30 295.55 143.33 295.31 143.49
  Q 295.14 143.36 295.11 143.15
  Q 295.08 142.90 294.84 142.93
  Q 294.49 142.96 294.57 142.76
  Q 285.60 137.48 284.12 127.87
  Q 282.71 118.70 289.46 111.27
  Q 289.59 111.54 290.06 111.06
  Q 290.32 110.79 290.07 110.27
  Q 290.20 110.29 290.34 110.28
  Q 290.48 110.28 290.58 110.19
  C 299.87 102.10 313.55 103.53 320.54 113.84
  C 327.20 123.68 324.05 135.97 314.04 142.35
  Q 313.86 142.47 313.76 142.66
  Q 313.64 142.94 313.67 143.23
  Z"
/>
<path fill="#000000" d="
  M 95.31 143.49
  L 63.60 206.93
  Q 63.32 207.40 62.71 206.47
  L 94.54 142.80
  Q 94.63 142.92 94.83 142.92
  Q 95.08 142.92 95.12 143.17
  Q 95.15 143.36 95.31 143.49
  Z"
/>
<path fill="#000000" d="
  M 295.31 143.49
  L 263.60 206.93
  Q 263.31 207.40 262.71 206.47
  L 294.57 142.76
  Q 294.49 142.96 294.84 142.93
  Q 295.08 142.90 295.11 143.15
  Q 295.14 143.36 295.31 143.49
  Z"
/>
<path fill="#000000" d="
  M 113.43 142.76
  L 145.40 206.73
  Q 145.12 207.15 144.59 207.28
  L 112.62 143.30
  Q 113.33 143.03 113.43 142.76
  Z"
/>
<path fill="#000000" d="
  M 313.67 143.23
  L 345.41 206.73
  Q 345.11 207.15 344.59 207.28
  L 312.62 143.31
  Q 313.44 142.70 313.67 143.23
  Z"
/>
<path fill="#4ade80" d="
  M 62.71 206.47
  Q 63.32 207.40 63.60 206.93
  Q 63.63 207.08 63.66 207.22
  Q 63.74 207.52 64.00 207.67
  C 73.03 213.28 76.53 223.70 72.17 233.42
  Q 68.60 241.38 59.37 244.43
  Q 59.68 244.80 58.40 244.65
  Q 54.03 245.38 49.60 244.65
  L 49.28 244.48
  Q 49.04 244.36 48.82 244.53
  L 48.55 244.74
  Q 48.74 244.42 48.25 244.26
  C 32.50 239.00 28.50 218.29 42.70 208.55
  Q 51.54 202.49 61.91 206.58
  Q 62.14 206.67 62.31 206.65
  Q 62.58 206.62 62.71 206.47
  Z"
/>
<path fill="#4ade80" d="
  M 144.59 207.28
  Q 145.12 207.15 145.40 206.73
  Q 161.83 200.76 171.10 214.47
  Q 175.20 220.54 173.50 229.14
  Q 171.84 237.53 164.28 242.11
  C 148.68 251.57 129.81 236.83 134.80 219.27
  Q 136.95 211.69 144.59 207.28
  Z"
/>
<path fill="#4ade80" d="
  M 262.71 206.47
  Q 263.31 207.40 263.60 206.93
  Q 263.65 207.44 263.88 207.59
  Q 276.59 215.66 273.25 230.26
  Q 271.57 237.62 264.18 242.15
  C 254.77 247.94 242.61 244.73 236.85 235.23
  C 231.49 226.39 233.84 214.88 242.23 208.87
  Q 251.28 202.39 261.91 206.58
  Q 262.14 206.67 262.32 206.65
  Q 262.58 206.62 262.71 206.47
  Z"
/>
<path fill="#4ade80" d="
  M 344.59 207.28
  Q 345.11 207.15 345.41 206.73
  Q 361.84 200.76 371.10 214.47
  Q 375.13 220.44 373.55 228.96
  Q 371.91 237.77 363.68 242.45
  C 353.92 248.00 341.89 244.30 336.46 234.54
  C 330.98 224.70 334.80 212.94 344.59 207.28
  Z"
/>
<path fill="#000000" d="
  M 49.60 244.65
  L 34.45 305.22
  Q 34.37 305.35 34.28 305.44
  Q 34.07 305.66 33.81 305.49
  Q 33.49 305.28 33.39 305.33
  L 48.55 244.74
  L 48.82 244.53
  Q 49.04 244.36 49.28 244.48
  L 49.60 244.65
  Z"
/>
<path fill="#000000" d="
  M 59.37 244.43
  L 74.60 305.33
  Q 73.87 306.20 73.63 305.61
  L 58.40 244.65
  Q 59.68 244.80 59.37 244.43
  Z"
/>
<path fill="#4ade80" d="
  M 33.39 305.33
  Q 33.49 305.28 33.81 305.49
  Q 34.07 305.66 34.28 305.44
  Q 34.37 305.35 34.45 305.22
  Q 34.47 305.44 34.59 305.63
  Q 34.68 305.77 34.84 305.82
  Q 44.40 309.11 47.79 318.20
  C 53.38 333.21 39.58 348.19 24.20 344.43
  C 12.80 341.64 5.79 329.01 10.37 317.76
  Q 14.64 307.24 26.76 304.98
  Q 28.43 304.67 33.39 305.33
  Z"
/>
<path fill="#4ade80" d="
  M 73.63 305.61
  Q 73.87 306.20 74.60 305.33
  Q 84.70 303.83 91.48 309.38
  C 101.30 317.43 101.53 331.39 92.23 339.97
  C 82.14 349.29 66.38 345.17 60.76 333.20
  Q 57.93 327.18 59.62 320.18
  Q 62.13 309.78 73.63 305.61
  Z"
/>
</svg>
